<svg id="SvgjsSvg2321" width="1020.234375" height="757" xmlns="http://www.w3.org/2000/svg" version="1.1" xmlns:xlink="http://www.w3.org/1999/xlink" xmlns:svgjs="http://svgjs.com/svgjs"><defs id="SvgjsDefs2322"><pattern id="SvgjsPattern2331" x="0" y="0" width="58" height="58" patternUnits="userSpaceOnUse"><image id="SvgjsImage2332" xlink:href="https://cdn2.iconfinder.com/data/icons/ios-7-icons/50/user_male4-128.png" width="58" height="58" preserveAspectRatio="none" crossOrigin="anonymous" x="0" y="0"></image></pattern><pattern id="SvgjsPattern2335" x="0" y="0" width="92" height="93" patternUnits="userSpaceOnUse"><image id="SvgjsImage2336" xlink:href="https://cdn4.iconfinder.com/data/icons/social-media-2231/512/8-wechat_messenger_social-128.png" width="92" height="93" preserveAspectRatio="none" crossOrigin="anonymous" x="0" y="0"></image></pattern><marker id="SvgjsMarker2343" markerWidth="16" markerHeight="12" refX="16" refY="6" viewBox="0 0 16 12" orient="auto" markerUnits="userSpaceOnUse"><path id="SvgjsPath2344" d="M0,2 L14,6 L0,11 L0,2" fill="#323232" stroke="#323232" stroke-width="2"></path></marker><marker id="SvgjsMarker2351" markerWidth="16" markerHeight="12" refX="16" refY="6" viewBox="0 0 16 12" orient="auto" markerUnits="userSpaceOnUse"><path id="SvgjsPath2352" d="M0,2 L14,6 L0,11 L0,2" fill="#323232" stroke="#323232" stroke-width="2"></path></marker><pattern id="SvgjsPattern2359" x="0" y="0" width="84" height="84" patternUnits="userSpaceOnUse"><image id="SvgjsImage2360" xlink:href="https://cdn1.iconfinder.com/data/icons/ios-11-glyphs/30/online_support-128.png" width="84" height="84" preserveAspectRatio="none" crossOrigin="anonymous" x="0" y="0"></image></pattern><pattern id="SvgjsPattern2363" x="0" y="0" width="28.5" height="28.5" patternUnits="userSpaceOnUse"><image id="SvgjsImage2364" xlink:href="https://www.processon.com/assets/images/designer/network/globe.svg" width="28.5" height="28.5" preserveAspectRatio="none" crossOrigin="anonymous" x="0" y="0"></image></pattern><pattern id="SvgjsPattern2373" x="0" y="0" width="62" height="75" patternUnits="userSpaceOnUse"><image id="SvgjsImage2374" xlink:href="https://www.processon.com/assets/images/designer/network_aws/securityIdentity/Security-Identity_AWSDirectoryService.svg" width="62" height="75" preserveAspectRatio="none" crossOrigin="anonymous" x="0" y="0"></image></pattern><marker id="SvgjsMarker2387" markerWidth="16" markerHeight="12" refX="16" refY="6" viewBox="0 0 16 12" orient="auto" markerUnits="userSpaceOnUse"><path id="SvgjsPath2388" d="M0,2 L14,6 L0,11 L0,2" fill="#323232" stroke="#323232" stroke-width="2"></path></marker><marker id="SvgjsMarker2391" markerWidth="16" markerHeight="12" refX="16" refY="6" viewBox="0 0 16 12" orient="auto" markerUnits="userSpaceOnUse"><path id="SvgjsPath2392" d="M0,2 L14,6 L0,11 L0,2" fill="#323232" stroke="#323232" stroke-width="2"></path></marker><pattern id="SvgjsPattern2411" x="0" y="0" width="75" height="75" patternUnits="userSpaceOnUse"><image id="SvgjsImage2412" xlink:href="https://www.processon.com/assets/images/designer/network_aliyun/Security/MSS2.svg" width="75" height="75" preserveAspectRatio="none" crossOrigin="anonymous" x="0" y="0"></image></pattern><marker id="SvgjsMarker2423" markerWidth="16" markerHeight="12" refX="16" refY="6" viewBox="0 0 16 12" orient="auto" markerUnits="userSpaceOnUse"><path id="SvgjsPath2424" d="M0,2 L14,6 L0,11 L0,2" fill="#323232" stroke="#323232" stroke-width="2"></path></marker><pattern id="SvgjsPattern2435" x="0" y="0" width="80" height="72" patternUnits="userSpaceOnUse"><image id="SvgjsImage2436" xlink:href="https://www.processon.com/assets/images/designer/network_cisco/Security/ciscosecurity.svg" width="80" height="72" preserveAspectRatio="none" crossOrigin="anonymous" x="0" y="0"></image></pattern><marker id="SvgjsMarker2439" markerWidth="16" markerHeight="12" refX="16" refY="6" viewBox="0 0 16 12" orient="auto" markerUnits="userSpaceOnUse"><path id="SvgjsPath2440" d="M0,2 L14,6 L0,11 L0,2" fill="#323232" stroke="#323232" stroke-width="2"></path></marker><pattern id="SvgjsPattern2455" x="0" y="0" width="62.88888888888883" height="62.88888888888883" patternUnits="userSpaceOnUse"><image id="SvgjsImage2456" xlink:href="https://cdn2.iconfinder.com/data/icons/essential-web-2/50/user-add-plus-create-admin-128.png" width="62.88888888888883" height="62.88888888888883" preserveAspectRatio="none" crossOrigin="anonymous" x="0" y="0"></image></pattern><pattern id="SvgjsPattern2481" x="0" y="0" width="47.62157974457929" height="62.150197293772976" patternUnits="userSpaceOnUse"><image id="SvgjsImage2482" xlink:href="https://www.processon.com/assets/images/designer/network_azure/SQLDataSync.svg" width="47.62157974457929" height="62.150197293772976" preserveAspectRatio="none" crossOrigin="anonymous" x="0" y="0"></image></pattern><marker id="SvgjsMarker2497" markerWidth="16" markerHeight="12" refX="16" refY="6" viewBox="0 0 16 12" orient="auto" markerUnits="userSpaceOnUse"><path id="SvgjsPath2498" d="M0,2 L14,6 L0,11 L0,2" fill="#323232" stroke="#323232" stroke-width="2"></path></marker><pattern id="SvgjsPattern2517" x="0" y="0" width="38.57090643274862" height="48.05555555555566" patternUnits="userSpaceOnUse"><image id="SvgjsImage2518" xlink:href="https://www.processon.com/assets/images/designer/network_azure/Scheduler.svg" width="38.57090643274862" height="48.05555555555566" preserveAspectRatio="none" crossOrigin="anonymous" x="0" y="0"></image></pattern><marker id="SvgjsMarker2525" markerWidth="16" markerHeight="12" refX="16" refY="6" viewBox="0 0 16 12" orient="auto" markerUnits="userSpaceOnUse"><path id="SvgjsPath2526" d="M0,2 L14,6 L0,11 L0,2" fill="#323232" stroke="#323232" stroke-width="2"></path></marker><marker id="SvgjsMarker2529" markerWidth="16" markerHeight="12" refX="16" refY="6" viewBox="0 0 16 12" orient="auto" markerUnits="userSpaceOnUse"><path id="SvgjsPath2530" d="M0,2 L14,6 L0,11 L0,2" fill="#323232" stroke="#323232" stroke-width="2"></path></marker><pattern id="SvgjsPattern2533" x="0" y="0" width="34" height="30.984773662551554" patternUnits="userSpaceOnUse"><image id="SvgjsImage2534" xlink:href="https://www.processon.com/assets/images/designer/network_aliyun/DomainandWebsite/DNS.svg" width="34" height="30.984773662551554" preserveAspectRatio="none" crossOrigin="anonymous" x="0" y="0"></image></pattern><marker id="SvgjsMarker2539" markerWidth="16" markerHeight="12" refX="16" refY="6" viewBox="0 0 16 12" orient="auto" markerUnits="userSpaceOnUse"><path id="SvgjsPath2540" d="M0,2 L14,6 L0,11 L0,2" fill="#323232" stroke="#323232" stroke-width="2"></path></marker></defs><g id="SvgjsG2323" transform="translate(655.2899305555557,160.55555555555554)"><path id="SvgjsPath2324" d="M 0 4Q 0 0 4 0L 214.61111111111097 0Q 218.61111111111097 0 218.61111111111097 4L 218.61111111111097 152.8950617283951Q 218.61111111111097 156.8950617283951 214.61111111111097 156.8950617283951L 4 156.8950617283951Q 0 156.8950617283951 0 152.8950617283951Z" stroke-dasharray="10,6" stroke="#323232" stroke-width="2" fill-opacity="1" fill="#ffffff"></path><g id="SvgjsG2325"><text id="SvgjsText2326" font-family="Tahoma" text-anchor="middle" font-size="12px" width="59" fill="#323232" font-weight="700" align="middle" anchor="middle" family="Tahoma" size="12px" weight="700" font-style="" y="2.9067901234567914" transform="rotate(0)"><tspan id="SvgjsTspan2327" dy="15" x="109.5"><tspan id="SvgjsTspan2328" style="text-decoration:;">Container</tspan></tspan></text></g></g><g id="SvgjsG2329" transform="translate(52.234375,247)"><path id="SvgjsPath2330" d="M 0 0L 58 0L 58 58L 0 58Z" stroke="none" fill="url(#SvgjsPattern2331)"></path></g><g id="SvgjsG2333" transform="translate(198.234375,229.5)"><path id="SvgjsPath2334" d="M 0 0L 92 0L 92 93L 0 93Z" stroke="none" fill="url(#SvgjsPattern2335)"></path></g><g id="SvgjsG2337" transform="translate(421.234375,110.94444444444451)"><path id="SvgjsPath2338" d="M 0 4Q 0 0 4 0L 569.7777777777777 0Q 573.7777777777777 0 573.7777777777777 4L 573.7777777777777 321.05555555555554Q 573.7777777777777 325.05555555555554 569.7777777777777 325.05555555555554L 4 325.05555555555554Q 0 325.05555555555554 0 321.05555555555554Z" stroke-dasharray="3,4" stroke="#323232" stroke-width="2" fill-opacity="1" fill="#ffffff"></path><g id="SvgjsG2339"><text id="SvgjsText2340" font-family="Tahoma" text-anchor="middle" font-size="12px" width="0" fill="#323232" font-weight="700" align="middle" anchor="middle" family="Tahoma" size="12px" weight="700" font-style="" y="153.22777777777776" transform="rotate(0)"></text></g></g><g id="SvgjsG2341"><path id="SvgjsPath2342" d="M110.234375 276L154.234375 276L154.234375 276L198.234375 276" stroke="#323232" stroke-width="2" fill="none" marker-end="url(#SvgjsMarker2343)"></path><rect id="SvgjsRect2345" width="33" height="15" x="137.734375" y="248.5" fill="#ffffff"></rect><text id="SvgjsText2346" font-family="Tahoma" text-anchor="middle" font-size="12px" width="33" fill="#323232" font-weight="700" align="top" anchor="middle" family="Tahoma" size="12px" weight="700" font-style="" y="246.7" transform="rotate(0)"><tspan id="SvgjsTspan2347" dy="15" x="154.234375"><tspan id="SvgjsTspan2348" style="text-decoration:;">Login</tspan></tspan></text></g><g id="SvgjsG2349"><path id="SvgjsPath2350" d="M244.234375 322.5L244.234375 352.5L81.234375 352.5L81.234375 305" stroke="#323232" stroke-width="2" fill="none" marker-end="url(#SvgjsMarker2351)"></path><rect id="SvgjsRect2353" width="65" height="15" x="121.484375" y="345" fill="#ffffff"></rect><text id="SvgjsText2354" font-family="Tahoma" text-anchor="middle" font-size="12px" width="65" fill="#323232" font-weight="700" align="top" anchor="middle" family="Tahoma" size="12px" weight="700" font-style="" y="343.2" transform="rotate(0)"><tspan id="SvgjsTspan2355" dy="15" x="153.984375"><tspan id="SvgjsTspan2356" style="text-decoration:;">Email Auth</tspan></tspan></text></g><g id="SvgjsG2357" transform="translate(63.234375,604)"><path id="SvgjsPath2358" d="M 0 0L 84 0L 84 84L 0 84Z" stroke="none" fill="url(#SvgjsPattern2359)"></path></g><g id="SvgjsG2361" transform="translate(469.734375,470.5)"><path id="SvgjsPath2362" d="M 0 0L 28.5 0L 28.5 28.5L 0 28.5Z" stroke="none" fill="url(#SvgjsPattern2363)"></path><g id="SvgjsG2365"><text id="SvgjsText2366" font-family="Tahoma" text-anchor="middle" font-size="12px" width="0" fill="#323232" font-weight="700" align="middle" anchor="middle" family="Tahoma" size="12px" weight="700" font-style="" y="34.2" transform="rotate(0)"></text></g></g><g id="SvgjsG2367" transform="translate(272.734375,561)"><path id="SvgjsPath2368" d="M 0 4Q 0 0 4 0L 231 0Q 235 0 235 4L 235 166Q 235 170 231 170L 4 170Q 0 170 0 166Z" stroke-dasharray="3,4" stroke="#323232" stroke-width="2" fill-opacity="1" fill="#ffffff"></path><g id="SvgjsG2369"><text id="SvgjsText2370" font-family="Tahoma" text-anchor="middle" font-size="12px" width="0" fill="#323232" font-weight="700" align="middle" anchor="middle" family="Tahoma" size="12px" weight="700" font-style="" y="75.7" transform="rotate(0)"></text></g></g><g id="SvgjsG2371" transform="translate(359.234375,594)"><path id="SvgjsPath2372" d="M 0 0L 62 0L 62 75L 0 75Z" stroke="none" fill="url(#SvgjsPattern2373)"></path><g id="SvgjsG2375"><text id="SvgjsText2376" font-family="Tahoma" text-anchor="middle" font-size="12px" width="0" fill="#323232" font-weight="700" align="middle" anchor="middle" family="Tahoma" size="12px" weight="700" font-style="" y="80.7" transform="rotate(0)"></text></g></g><g id="SvgjsG2377" transform="translate(341.234375,684)"><path id="SvgjsPath2378" d="M 0 0L 98 0L 98 27L 0 27Z" stroke="none" fill="none"></path><g id="SvgjsG2379"><text id="SvgjsText2380" font-family="Tahoma" text-anchor="middle" font-size="12px" width="81" fill="#323232" font-weight="700" align="middle" anchor="middle" family="Tahoma" size="12px" weight="700" font-style="" y="-3.3" transform="rotate(0)"><tspan id="SvgjsTspan2381" dy="15" x="49"><tspan id="SvgjsTspan2382" style="text-decoration:;">BoldChat 360 </tspan></tspan><tspan id="SvgjsTspan2383" dy="15" x="49"><tspan id="SvgjsTspan2384" style="text-decoration:;">API</tspan></tspan></text></g></g><g id="SvgjsG2385"><path id="SvgjsPath2386" d="M469.734375 484.75L390.234375 484.75L390.234375 561" stroke="#323232" stroke-width="2" fill="none" marker-end="url(#SvgjsMarker2387)"></path></g><g id="SvgjsG2389"><path id="SvgjsPath2390" d="M272.734375 646L209.984375 646L209.984375 646L147.234375 646" stroke="#323232" stroke-width="2" fill="none" marker-end="url(#SvgjsMarker2391)"></path></g><g id="SvgjsG2393" transform="translate(74.234375,700)"><path id="SvgjsPath2394" d="M 0 0L 69 0L 69 32L 0 32Z" stroke="none" fill="none"></path><g id="SvgjsG2395"><text id="SvgjsText2396" font-family="Tahoma" text-anchor="middle" font-size="12px" width="66" fill="#323232" font-weight="700" align="middle" anchor="middle" family="Tahoma" size="12px" weight="700" font-style="" y="6.7" transform="rotate(0)"><tspan id="SvgjsTspan2397" dy="15" x="34.5"><tspan id="SvgjsTspan2398" style="text-decoration:;">Call Center</tspan></tspan></text></g></g><g id="SvgjsG2399" transform="translate(447.3694915980806,173.3827160493827)"><path id="SvgjsPath2400" d="M 0 0L 242 0L 242 36L 0 36Z" stroke="none" fill="none"></path><g id="SvgjsG2401"><text id="SvgjsText2402" font-family="Tahoma" text-anchor="middle" font-size="12px" width="176" fill="#323232" font-weight="700" align="middle" anchor="middle" family="Tahoma" size="12px" weight="700" font-style="" y="8.7" transform="rotate(0)"><tspan id="SvgjsTspan2403" dy="15" x="121"><tspan id="SvgjsTspan2404" style="text-decoration:;">Live Chat Application Servers</tspan></tspan></text></g></g><g id="SvgjsG2405" transform="translate(708.6294367283956,563.1216278006402)"><path id="SvgjsPath2406" d="M 0 4Q 0 0 4 0L 243.32098765432056 0Q 247.32098765432056 0 247.32098765432056 4L 247.32098765432056 161.22633744855943Q 247.32098765432056 165.22633744855943 243.32098765432056 165.22633744855943L 4 165.22633744855943Q 0 165.22633744855943 0 161.22633744855943Z" stroke-dasharray="3,4" stroke="#323232" stroke-width="2" fill-opacity="1" fill="#ffffff"></path><g id="SvgjsG2407"><text id="SvgjsText2408" font-family="Tahoma" text-anchor="middle" font-size="12px" width="0" fill="#323232" font-weight="700" align="middle" anchor="middle" family="Tahoma" size="12px" weight="700" font-style="" y="73.31316872427972" transform="rotate(0)"></text></g></g><g id="SvgjsG2409" transform="translate(794.036691720012,590.1111111111111)"><path id="SvgjsPath2410" d="M 0 0L 75 0L 75 75L 0 75Z" stroke="none" fill="url(#SvgjsPattern2411)"></path><g id="SvgjsG2413"><text id="SvgjsText2414" font-family="Tahoma" text-anchor="middle" font-size="12px" width="0" fill="#323232" font-weight="700" align="middle" anchor="middle" family="Tahoma" size="12px" weight="700" font-style="" y="80.7" transform="rotate(0)"></text></g></g><g id="SvgjsG2415" transform="translate(782.2899305555557,678)"><path id="SvgjsPath2416" d="M 0 0L 106 0L 106 22L 0 22Z" stroke="none" fill="none"></path><g id="SvgjsG2417"><text id="SvgjsText2418" font-family="Tahoma" text-anchor="middle" font-size="12px" width="36" fill="#323232" font-weight="700" align="middle" anchor="middle" family="Tahoma" size="12px" weight="700" font-style="" y="1.7000000000000002" transform="rotate(0)"><tspan id="SvgjsTspan2419" dy="15" x="53"><tspan id="SvgjsTspan2420" style="text-decoration:;">JJEDS</tspan></tspan></text></g></g><g id="SvgjsG2421"><path id="SvgjsPath2422" d="M572.9010416666677 298.4444444444444L572.9010416666677 484.75L498.234375 484.75" stroke="#323232" stroke-width="2" fill="none" marker-end="url(#SvgjsMarker2423)"></path><rect id="SvgjsRect2425" width="88" height="15" x="528.234375" y="374.5" fill="#ffffff"></rect><text id="SvgjsText2426" font-family="Tahoma" text-anchor="middle" font-size="12px" width="88" fill="#323232" font-weight="700" align="top" anchor="middle" family="Tahoma" size="12px" weight="700" font-style="" y="372.7" transform="rotate(0)"><tspan id="SvgjsTspan2427" dy="15" x="572.234375"><tspan id="SvgjsTspan2428" style="text-decoration:;">Post Messages</tspan></tspan></text></g><g id="SvgjsG2429" transform="translate(491.2837577160502,207.77777777777774)"><path id="SvgjsPath2430" d="M 0 55.04722222222224C 0 -18.34907407407408 157.27777777777783 -18.34907407407408 157.27777777777783 55.04722222222224C 157.27777777777783 128.44351851851854 0 128.44351851851854 0 55.04722222222224Z" stroke="#323232" stroke-width="2" fill-opacity="1" fill="#ffffff"></path><g id="SvgjsG2431"><text id="SvgjsText2432" font-family="Tahoma" text-anchor="middle" font-size="12px" width="0" fill="#323232" font-weight="700" align="middle" anchor="middle" family="Tahoma" size="12px" weight="700" font-style="" y="45.74722222222224" transform="rotate(0)"></text></g></g><g id="SvgjsG2433" transform="translate(532.9010416666677,226.4444444444444)"><path id="SvgjsPath2434" d="M 0 0L 80 0L 80 72L 0 72Z" stroke="none" fill="url(#SvgjsPattern2435)"></path></g><g id="SvgjsG2437"><path id="SvgjsPath2438" d="M290.234375 276L391.866683735953 276L391.866683735953 276.05319904449556L493.49899247190604 276.05319904449556" stroke="#323232" stroke-width="2" fill="none" marker-end="url(#SvgjsMarker2439)"></path><rect id="SvgjsRect2441" width="90" height="15" x="311.234375" y="248.5" fill="#ffffff"></rect><text id="SvgjsText2442" font-family="Tahoma" text-anchor="middle" font-size="12px" width="90" fill="#323232" font-weight="700" align="top" anchor="middle" family="Tahoma" size="12px" weight="700" font-style="" y="246.7" transform="rotate(0)"><tspan id="SvgjsTspan2443" dy="15" x="356.234375"><tspan id="SvgjsTspan2444" style="text-decoration:;">Chat Messages</tspan></tspan></text></g><g id="SvgjsG2445" transform="translate(323.3948688271606,282.31666666666666)"><path id="SvgjsPath2446" d="M 0 0L 65.55555555555556 0L 65.55555555555556 35.55555555555556L 0 35.55555555555556Z" stroke="none" fill="none"></path><g id="SvgjsG2447"><text id="SvgjsText2448" font-family="Tahoma" text-anchor="middle" font-size="12px" width="54" fill="#323232" font-weight="700" align="middle" anchor="middle" family="Tahoma" size="12px" weight="700" font-style="" y="0.9777777777777787" transform="rotate(0)"><tspan id="SvgjsTspan2449" dy="15" x="33"><tspan id="SvgjsTspan2450" style="text-decoration:;">Enroll </tspan></tspan><tspan id="SvgjsTspan2451" dy="15" x="33"><tspan id="SvgjsTspan2452" style="text-decoration:;">(openId)</tspan></tspan></text></g></g><g id="SvgjsG2453" transform="translate(224.34548611111123,54.3333333333334)"><path id="SvgjsPath2454" d="M 0 0L 62.88888888888883 0L 62.88888888888883 62.88888888888883L 0 62.88888888888883Z" stroke="none" fill="url(#SvgjsPattern2455)"></path></g><g id="SvgjsG2457" transform="translate(920.8009044924548,328.3333333333333)"><path id="SvgjsPath2458" d="M 10 0L 20 10L 13.4 10L 13.4 207.77777777777777L 20 207.77777777777777L 10 217.77777777777777L 0 207.77777777777777L 6.6000000000000005 207.77777777777777L 6.6000000000000005 10L 0 10L 10 0Z" stroke="#323232" stroke-width="2" fill-opacity="1" fill="#ffffff"></path><g id="SvgjsG2459"><text id="SvgjsText2460" font-family="Tahoma" text-anchor="middle" font-size="12px" width="0" fill="#323232" font-weight="700" align="middle" anchor="middle" family="Tahoma" size="12px" weight="700" font-style="" y="99.58888888888889" transform="rotate(0)"></text></g></g><g id="SvgjsG2461" transform="translate(818.2220293209876,372.6268861454039)"><path id="SvgjsPath2462" d="M 0 0L 104.69135802469145 0L 104.69135802469145 46.8175582990404L 0 46.8175582990404Z" stroke="none" fill="none"></path><g id="SvgjsG2463"><text id="SvgjsText2464" font-family="Tahoma" text-anchor="middle" font-size="12px" width="95" fill="#323232" font-weight="700" align="middle" anchor="middle" family="Tahoma" size="12px" weight="700" font-style="" y="-8.391220850479801" transform="rotate(0)"><tspan id="SvgjsTspan2465" dy="15" x="52.5"><tspan id="SvgjsTspan2466" style="text-decoration:;">Synchronize </tspan></tspan><tspan id="SvgjsTspan2467" dy="15" x="52.5"><tspan id="SvgjsTspan2468" style="text-decoration:;">Contacts, </tspan></tspan><tspan id="SvgjsTspan2469" dy="15" x="52.5"><tspan id="SvgjsTspan2470" style="text-decoration:;">Active Status of </tspan></tspan><tspan id="SvgjsTspan2471" dy="15" x="52.5"><tspan id="SvgjsTspan2472" style="text-decoration:;">Employee</tspan></tspan></text></g></g><g id="SvgjsG2473" transform="translate(743.9010416666667,178.3333333333333)"><path id="SvgjsPath2474" d="M 0 4Q 0 0 4 0L 207.11111111111111 0Q 211.11111111111111 0 211.11111111111111 4L 211.11111111111111 128Q 211.11111111111111 132 207.11111111111111 132L 4 132Q 0 132 0 128Z" stroke-dasharray="10,6" stroke="#323232" stroke-width="2" fill-opacity="1" fill="#ffffff"></path><g id="SvgjsG2475"><text id="SvgjsText2476" font-family="Tahoma" text-anchor="middle" font-size="12px" width="57" fill="#323232" font-weight="700" align="middle" anchor="middle" family="Tahoma" size="12px" weight="700" font-style="" y="1.128571428571429" transform="rotate(0)"><tspan id="SvgjsTspan2477" dy="15" x="106"><tspan id="SvgjsTspan2478" style="text-decoration:;">DataBase</tspan></tspan></text></g></g><g id="SvgjsG2479" transform="translate(765.7948840687397,229.80884530089992)"><path id="SvgjsPath2480" d="M 0 0L 47.62157974457929 0L 47.62157974457929 62.150197293772976L 0 62.150197293772976Z" stroke="none" fill="url(#SvgjsPattern2481)"></path><g id="SvgjsG2483"><text id="SvgjsText2484" font-family="Tahoma" text-anchor="middle" font-size="12px" width="0" fill="#323232" font-weight="700" align="middle" anchor="middle" family="Tahoma" size="12px" weight="700" font-style="" y="67.85019729377298" transform="rotate(0)"></text></g></g><g id="SvgjsG2485" transform="translate(827.728202160494,229.9406497419397)"><path id="SvgjsPath2486" d="M 0 0L 120.6172839506171 0L 120.6172839506171 61.886588411693424L 0 61.886588411693424L 0 0ZM 20 0L 20 61.886588411693424M 100.6172839506171 0L 100.6172839506171 61.886588411693424" stroke="#323232" stroke-width="2" fill-opacity="1" fill="#ffffff"></path><g id="SvgjsG2487"><text id="SvgjsText2488" font-family="Tahoma" text-anchor="middle" font-size="12px" width="81" fill="#323232" font-weight="700" align="middle" anchor="middle" family="Tahoma" size="12px" weight="700" font-style="" y="6.643294205846712" transform="rotate(0)"><tspan id="SvgjsTspan2489" dy="15" x="60.5"><tspan id="SvgjsTspan2490" style="text-decoration:;">User </tspan></tspan><tspan id="SvgjsTspan2491" dy="15" x="60.5"><tspan id="SvgjsTspan2492" style="text-decoration:;">Infomation(o</tspan></tspan><tspan id="SvgjsTspan2493" dy="15" x="60.5"><tspan id="SvgjsTspan2494" style="text-decoration:;">penId/wwid)</tspan></tspan></text></g></g><g id="SvgjsG2495"><path id="SvgjsPath2496" d="M255.78993055555566 117.22222222222223L255.78993055555566 171.11111111111111L255.78993055555566 171.11111111111111L255.78993055555566 225" stroke="#323232" stroke-width="2" fill="none" marker-end="url(#SvgjsMarker2497)"></path><rect id="SvgjsRect2499" width="104" height="15" x="203.78993055555566" y="163.61111111111111" fill="#ffffff"></rect><text id="SvgjsText2500" font-family="Tahoma" text-anchor="middle" font-size="12px" width="104" fill="#323232" font-weight="700" align="top" anchor="middle" family="Tahoma" size="12px" weight="700" font-style="" y="161.8111111111111" transform="rotate(0)"><tspan id="SvgjsTspan2501" dy="15" x="255.78993055555566"><tspan id="SvgjsTspan2502" style="text-decoration:;">Manage Contacts</tspan></tspan></text></g><g id="SvgjsG2503" transform="translate(227.97511574074088,24.999999999999986)"><path id="SvgjsPath2504" d="M 0 0L 56.666666666666664 0L 56.666666666666664 22.22222222222222L 0 22.22222222222222Z" stroke="none" fill="none"></path><g id="SvgjsG2505"><text id="SvgjsText2506" font-family="Tahoma" text-anchor="middle" font-size="12px" width="39" fill="#323232" font-weight="700" align="middle" anchor="middle" family="Tahoma" size="12px" weight="700" font-style="" y="1.811111111111111" transform="rotate(0)"><tspan id="SvgjsTspan2507" dy="15" x="28.5"><tspan id="SvgjsTspan2508" style="text-decoration:;">Admin</tspan></tspan></text></g></g><g id="SvgjsG2509" transform="translate(25.012152777777843,221.17283950617286)"><path id="SvgjsPath2510" d="M 0 0L 60 0L 60 25.555555555555554L 0 25.555555555555554Z" stroke="none" fill="none"></path><g id="SvgjsG2511"><text id="SvgjsText2512" font-family="Tahoma" text-anchor="middle" font-size="12px" width="54" fill="#323232" font-weight="700" align="middle" anchor="middle" family="Tahoma" size="12px" weight="700" font-style="" y="3.477777777777777" transform="rotate(0)"><tspan id="SvgjsTspan2513" dy="15" x="30"><tspan id="SvgjsTspan2514" style="text-decoration:;">End User</tspan></tspan></text></g></g><g id="SvgjsG2515" transform="translate(737.1664737654323,329.0854290504491)"><path id="SvgjsPath2516" d="M 0 0L 38.57090643274862 0L 38.57090643274862 48.05555555555566L 0 48.05555555555566Z" stroke="none" fill="url(#SvgjsPattern2517)"></path><g id="SvgjsG2519"><text id="SvgjsText2520" font-family="Tahoma" text-anchor="middle" font-size="12px" width="60" fill="#323232" font-weight="700" align="middle" anchor="middle" family="Tahoma" size="12px" weight="700" font-style="" y="53.75555555555566" transform="rotate(0)"><tspan id="SvgjsTspan2521" dy="15" x="19.5"><tspan id="SvgjsTspan2522" style="text-decoration:;">Scheduler</tspan></tspan></text></g></g><g id="SvgjsG2523"><path id="SvgjsPath2524" d="M775.737380198181 353.1132068282269L842.4858775990905 353.1132068282269L842.4858775990905 353L909.234375 353" stroke-dasharray="3,3" stroke="#323232" stroke-width="2" fill="none" marker-end="url(#SvgjsMarker2525)"></path></g><g id="SvgjsG2527"><path id="SvgjsPath2528" d="M630.25040253403 298.8532345708467L630.25040253403 357.08088950607873L728.407214506173 357.08088950607873" stroke-dasharray="3,3" stroke="#323232" stroke-width="2" fill="none" marker-end="url(#SvgjsMarker2529)"></path></g><g id="SvgjsG2531" transform="translate(427.234375,235.6604938271604)"><path id="SvgjsPath2532" d="M 0 0L 34 0L 34 30.984773662551554L 0 30.984773662551554Z" stroke="none" fill="url(#SvgjsPattern2533)"></path><g id="SvgjsG2535"><text id="SvgjsText2536" font-family="微软雅黑" text-anchor="middle" font-size="13px" width="0" fill="#323232" font-weight="400" align="middle" anchor="middle" family="微软雅黑" size="13px" weight="400" font-style="" y="36.03477366255155" transform="rotate(0)"></text></g></g><g id="SvgjsG2537"><path id="SvgjsPath2538" d="M648.561535493828 262.825L688.8979552469141 262.825L688.8979552469141 262.825L729.234375 262.825" stroke="#323232" stroke-width="2" fill="none" marker-end="url(#SvgjsMarker2539)"></path><rect id="SvgjsRect2541" width="32" height="15" x="672.234375" y="242" fill="#ffffff"></rect><text id="SvgjsText2542" font-family="Tahoma" text-anchor="middle" font-size="12px" width="32" fill="#323232" font-weight="700" align="top" anchor="middle" family="Tahoma" size="12px" weight="700" font-style="" y="240.2" transform="rotate(0)"><tspan id="SvgjsTspan2543" dy="15" x="688.234375"><tspan id="SvgjsTspan2544" style="text-decoration:;">Store</tspan></tspan></text></g></svg>