<svg x="0" y="0" width="48" height="48" version="1.1" xmlns="http://www.w3.org/2000/svg" xmlns:xlink="http://www.w3.org/1999/xlink"><defs><linearGradient x1="13.96627" y1="11.55907" x2="43.68828" y2="37.23711" gradientUnits="userSpaceOnUse" id="color-1"><stop offset="0.59" stop-color="#000000" stop-opacity="0.67"></stop><stop offset="1" stop-color="#000000" stop-opacity="0"></stop></linearGradient><filter id="dropshadow"><feColorMatrix type="matrix" values="0 0 0 0 .05  0 0 0 0 .15  0 0 0 0 .1  0 0 0 .8 0"></feColorMatrix> <feOffset dx="0" dy="1"></feOffset> <feGaussianBlur stdDeviation="1"></feGaussianBlur> <feComposite in="SourceGraphic"></feComposite></filter></defs><g fill="none" stroke="none" stroke-width="none" stroke-linecap="butt" stroke-linejoin="miter" stroke-miterlimit="none" stroke-dasharray="" stroke-dashoffset="0" font-family="none" font-weight="normal" font-size="none" text-anchor="start" mix-blend-mode="normal"><g fill="#000000" stroke="none" stroke-width="1" stroke-miterlimit="4" font-family="&quot;Open Sans&quot;, sans-serif" font-size="14"></g><g fill="#000000" stroke="none" stroke-width="1" stroke-miterlimit="4" font-family="&quot;Open Sans&quot;, sans-serif" font-size="14"></g><g fill="#000000" stroke="none" stroke-width="1" stroke-miterlimit="4" font-family="&quot;Open Sans&quot;, sans-serif" font-size="14"></g><path d="M3,24c0,-11.59798 9.40202,-21 21,-21c11.59798,0 21,9.40202 21,21c0,11.59798 -9.40202,21 -21,21c-11.59798,0 -21,-9.40202 -21,-21z" fill="#ed53a6" stroke-width="1" stroke-miterlimit="10" font-family="sans-serif" font-size="12" filter="url(#dropshadow)"></path><path d="M41.33205,24.09491c0,0 -25.93809,-11.12162 -25.93809,-11.12162c0,0 0,0 0,0l-0.01173,8.21051l18.80389,2.50719l0,0l0.00001,0l1.41421,1.41421l-20.21985,2.69598l-1.41421,-1.41421l15.62366,-2.08316c0,0 -14.20946,-1.89459 -14.20946,-1.89459l-1.41421,-1.41421l0.00001,0l-0.00001,-0.00001l0.01348,-9.43593c0,0 0.00002,0.00002 0.00002,0.00002l28.2943,12.1319l1.41421,1.41421l-28.29432,12.13191l-1.41421,-1.41421l-0.01348,-9.43593l1.41421,1.41421l0.0106,7.41658z" fill="url(#color-1)" stroke-width="1" stroke-miterlimit="10" font-family="sans-serif" font-size="12"></path><path d="M13.96627,26.38697l20.21985,-2.69598l-20.21985,-2.69598l0.01348,-9.43593l28.29432,12.13191l-28.29432,12.13191z" fill="#ffffff" stroke="none" stroke-width="0" stroke-miterlimit="4" font-family="&quot;Open Sans&quot;, sans-serif" font-size="14"></path></g></svg>