<svg x="0" y="0" width="48" height="48" version="1.1" xmlns="http://www.w3.org/2000/svg" xmlns:xlink="http://www.w3.org/1999/xlink"><defs><linearGradient x1="13.86207" y1="11.68966" x2="35.19859" y2="37.371" gradientUnits="userSpaceOnUse" id="color-1"><stop offset="0.97" stop-color="#000000" stop-opacity="0.11"></stop><stop offset="1" stop-color="#000000" stop-opacity="0"></stop></linearGradient><filter id="dropshadow"><feColorMatrix type="matrix" values="0 0 0 0 .05  0 0 0 0 .15  0 0 0 0 .1  0 0 0 .8 0"></feColorMatrix> <feOffset dx="0" dy="1"></feOffset> <feGaussianBlur stdDeviation="1"></feGaussianBlur> <feComposite in="SourceGraphic"></feComposite></filter></defs><g fill="none" stroke="none" stroke-width="none" stroke-linecap="butt" stroke-linejoin="miter" stroke-miterlimit="none" stroke-dasharray="" stroke-dashoffset="0" font-family="none" font-weight="normal" font-size="none" text-anchor="start" mix-blend-mode="normal"><g fill="#000000" stroke="none" stroke-width="1" stroke-miterlimit="4" font-family="&quot;Open Sans&quot;, sans-serif" font-size="14"></g><g fill="#000000" stroke="none" stroke-width="1" stroke-miterlimit="4" font-family="&quot;Open Sans&quot;, sans-serif" font-size="14"></g><path d="M3,24c0,-11.59798 9.40202,-21 21,-21c11.59798,0 21,9.40202 21,21c0,11.59798 -9.40202,21 -21,21c-11.59798,0 -21,-9.40202 -21,-21z" fill="#fed430" stroke-width="1" stroke-miterlimit="10" font-family="sans-serif" font-size="12" filter="url(#dropshadow)"></path><path d="M24,30.51724l9.07727,-9.07727l-3.67178,0l-1.06066,-1.06066l0,-7.62899l-7.62899,0l-1.06066,-1.06066l8.68965,0l1.06066,1.06066c0,0 0,7.62899 0,7.62899l4.73244,0l1.06066,1.06066l-10.13793,10.13793z M34.13793,36.31034l0,-1.83589l-19.21519,0l-1.06066,-1.06066l20.27585,0l1.06066,1.06066l0,2.89655z M14.92273,36.31034l19.21519,0l1.06066,1.06066l-20.27585,0l-1.06066,-1.06066l0,-2.89655l1.06066,1.06066z M20.71583,12.75032l0,8.68965l-5.7931,0l-1.06066,-1.06066l5.7931,0l0,-8.68965z" fill="url(#color-1)" stroke-width="1" stroke-miterlimit="10" font-family="sans-serif" font-size="12"></path><path d="M24,30.51724l-10.13793,-10.13793l5.7931,0l0,-8.68965l8.68965,0l0,8.68965l5.7931,0z M34.13793,33.41379l0,2.89655l-20.27585,0l0,-2.89655z" fill="#ffffff" stroke="none" stroke-width="0" stroke-miterlimit="4" font-family="&quot;Open Sans&quot;, sans-serif" font-size="14"></path></g></svg>